<?xml version="1.0" encoding="UTF-8"?>
<svg xmlns="http://www.w3.org/2000/svg" xmlns:xlink="http://www.w3.org/1999/xlink" width="155px" height="155px" viewBox="0 0 155 155" version="1.1">
<g id="surface1">
<path style=" stroke:none;fill-rule:nonzero;fill:rgb(0%,0%,0%);fill-opacity:1;" d="M 21.296875 -0.078125 C 21.800781 -0.0820312 22.304688 -0.0820312 22.808594 -0.0820312 C 24.191406 -0.0859375 25.574219 -0.0859375 26.953125 -0.0820312 C 28.449219 -0.0820312 29.9375 -0.0859375 31.429688 -0.0898438 C 34.351562 -0.0898438 37.273438 -0.0898438 40.195312 -0.0898438 C 42.570312 -0.0898438 44.945312 -0.0898438 47.320312 -0.09375 C 47.65625 -0.09375 47.996094 -0.09375 48.34375 -0.09375 C 49.03125 -0.09375 49.71875 -0.09375 50.40625 -0.09375 C 56.84375 -0.0976562 63.285156 -0.0976562 69.726562 -0.09375 C 75.617188 -0.09375 81.503906 -0.0976562 87.394531 -0.101562 C 93.445312 -0.109375 99.496094 -0.113281 105.546875 -0.109375 C 108.941406 -0.109375 112.339844 -0.109375 115.734375 -0.113281 C 118.625 -0.117188 121.515625 -0.117188 124.40625 -0.113281 C 125.878906 -0.113281 127.355469 -0.113281 128.828125 -0.117188 C 130.179688 -0.121094 131.53125 -0.117188 132.882812 -0.113281 C 133.367188 -0.113281 133.855469 -0.113281 134.34375 -0.117188 C 140.007812 -0.144531 145.109375 1.402344 149.261719 5.386719 C 153.765625 9.941406 155.09375 15.085938 155.078125 21.296875 C 155.082031 21.800781 155.082031 22.304688 155.082031 22.808594 C 155.085938 24.191406 155.085938 25.574219 155.082031 26.953125 C 155.082031 28.449219 155.085938 29.9375 155.089844 31.429688 C 155.089844 34.351562 155.089844 37.273438 155.089844 40.195312 C 155.089844 42.570312 155.089844 44.945312 155.09375 47.320312 C 155.09375 47.65625 155.09375 47.996094 155.09375 48.34375 C 155.09375 49.03125 155.09375 49.71875 155.09375 50.40625 C 155.097656 56.84375 155.097656 63.285156 155.09375 69.726562 C 155.09375 75.617188 155.097656 81.503906 155.101562 87.394531 C 155.109375 93.445312 155.113281 99.496094 155.109375 105.546875 C 155.109375 108.941406 155.109375 112.339844 155.113281 115.734375 C 155.117188 118.625 155.117188 121.515625 155.113281 124.40625 C 155.113281 125.878906 155.113281 127.355469 155.117188 128.828125 C 155.121094 130.179688 155.117188 131.53125 155.113281 132.882812 C 155.113281 133.367188 155.113281 133.855469 155.117188 134.34375 C 155.144531 140.007812 153.597656 145.109375 149.613281 149.261719 C 145.058594 153.765625 139.914062 155.09375 133.703125 155.078125 C 133.199219 155.082031 132.695312 155.082031 132.191406 155.082031 C 130.808594 155.085938 129.425781 155.085938 128.046875 155.082031 C 126.550781 155.082031 125.0625 155.085938 123.570312 155.089844 C 120.648438 155.089844 117.726562 155.089844 114.804688 155.089844 C 112.429688 155.089844 110.054688 155.089844 107.679688 155.09375 C 107.34375 155.09375 107.003906 155.09375 106.65625 155.09375 C 105.96875 155.09375 105.28125 155.09375 104.59375 155.09375 C 98.15625 155.097656 91.714844 155.097656 85.273438 155.09375 C 79.382812 155.09375 73.496094 155.097656 67.605469 155.101562 C 61.554688 155.109375 55.503906 155.113281 49.453125 155.109375 C 46.058594 155.109375 42.660156 155.109375 39.265625 155.113281 C 36.375 155.117188 33.484375 155.117188 30.59375 155.113281 C 29.121094 155.113281 27.644531 155.113281 26.171875 155.117188 C 24.820312 155.121094 23.46875 155.117188 22.117188 155.113281 C 21.632812 155.113281 21.144531 155.113281 20.65625 155.117188 C 14.992188 155.144531 9.890625 153.597656 5.738281 149.613281 C 1.234375 145.058594 -0.09375 139.914062 -0.078125 133.703125 C -0.0820312 133.199219 -0.0820312 132.695312 -0.0820312 132.191406 C -0.0859375 130.808594 -0.0859375 129.425781 -0.0820312 128.046875 C -0.0820312 126.550781 -0.0859375 125.0625 -0.0898438 123.570312 C -0.0898438 120.648438 -0.0898438 117.726562 -0.0898438 114.804688 C -0.0898438 112.429688 -0.0898438 110.054688 -0.09375 107.679688 C -0.09375 107.34375 -0.09375 107.003906 -0.09375 106.65625 C -0.09375 105.96875 -0.09375 105.28125 -0.09375 104.59375 C -0.0976562 98.15625 -0.0976562 91.714844 -0.09375 85.273438 C -0.09375 79.382812 -0.0976562 73.496094 -0.101562 67.605469 C -0.109375 61.554688 -0.113281 55.503906 -0.109375 49.453125 C -0.109375 46.058594 -0.109375 42.660156 -0.113281 39.265625 C -0.117188 36.375 -0.117188 33.484375 -0.113281 30.59375 C -0.113281 29.121094 -0.113281 27.644531 -0.117188 26.171875 C -0.121094 24.820312 -0.117188 23.46875 -0.113281 22.117188 C -0.113281 21.632812 -0.113281 21.144531 -0.117188 20.65625 C -0.144531 14.992188 1.402344 9.890625 5.386719 5.738281 C 9.941406 1.234375 15.085938 -0.09375 21.296875 -0.078125 Z M 12.28125 12.28125 C 12.050781 12.503906 11.816406 12.730469 11.582031 12.960938 C 9.722656 15.585938 9.160156 18.1875 9.203125 21.351562 C 9.203125 21.714844 9.199219 22.078125 9.199219 22.453125 C 9.195312 23.453125 9.203125 24.453125 9.210938 25.453125 C 9.214844 26.535156 9.214844 27.617188 9.214844 28.699219 C 9.210938 30.570312 9.214844 32.441406 9.222656 34.3125 C 9.238281 37.019531 9.242188 39.722656 9.242188 42.429688 C 9.246094 46.820312 9.253906 51.210938 9.269531 55.601562 C 9.285156 59.863281 9.292969 64.125 9.300781 68.386719 C 9.304688 68.652344 9.304688 68.914062 9.304688 69.1875 C 9.304688 70.503906 9.304688 71.824219 9.308594 73.144531 C 9.324219 84.082031 9.351562 95.019531 9.382812 105.957031 C 9.769531 105.671875 10.148438 105.386719 10.53125 105.101562 C 10.746094 104.941406 10.957031 104.785156 11.175781 104.621094 C 12.085938 103.929688 12.949219 103.1875 13.8125 102.4375 C 14.179688 102.121094 14.546875 101.800781 14.917969 101.484375 C 15.195312 101.242188 15.195312 101.242188 15.480469 100.996094 C 16.394531 100.207031 17.304688 99.417969 18.222656 98.632812 C 18.398438 98.484375 18.574219 98.332031 18.753906 98.175781 C 19.832031 97.253906 20.921875 96.347656 22.023438 95.457031 C 23.085938 94.59375 24.113281 93.707031 25.125 92.789062 C 26.417969 91.613281 27.746094 90.503906 29.101562 89.40625 C 29.714844 88.910156 30.324219 88.40625 30.925781 87.898438 C 31.085938 87.765625 31.246094 87.628906 31.410156 87.492188 C 31.855469 87.113281 32.300781 86.738281 32.75 86.359375 C 35.601562 84.074219 38.714844 82.953125 42.382812 83.25 C 46.652344 83.929688 49.359375 86.167969 52.492188 88.953125 C 53.582031 89.917969 54.707031 90.824219 55.847656 91.722656 C 56.765625 92.457031 57.664062 93.21875 58.558594 93.980469 C 58.894531 94.261719 59.226562 94.542969 59.558594 94.828125 C 60.050781 95.242188 60.542969 95.660156 61.03125 96.078125 C 61.488281 96.464844 61.945312 96.851562 62.402344 97.234375 C 62.664062 97.457031 62.929688 97.679688 63.199219 97.910156 C 63.863281 98.476562 63.863281 98.476562 64.785156 98.390625 C 65.382812 97.878906 65.921875 97.363281 66.472656 96.804688 C 66.640625 96.632812 66.8125 96.460938 66.988281 96.285156 C 67.5625 95.710938 68.132812 95.132812 68.703125 94.554688 C 69.113281 94.140625 69.523438 93.730469 69.933594 93.320312 C 70.816406 92.433594 71.699219 91.542969 72.582031 90.652344 C 73.976562 89.242188 75.378906 87.835938 76.777344 86.429688 C 80.257812 82.9375 83.730469 79.4375 87.203125 75.941406 C 89.898438 73.222656 92.597656 70.511719 95.296875 67.800781 C 96.6875 66.40625 98.074219 65.007812 99.460938 63.605469 C 100.324219 62.730469 101.195312 61.863281 102.0625 60.992188 C 102.464844 60.589844 102.863281 60.1875 103.261719 59.78125 C 106.753906 56.234375 109.875 53.707031 115.101562 53.554688 C 119.074219 53.757812 121.9375 55.476562 124.574219 58.351562 C 125.640625 59.574219 126.664062 60.824219 127.671875 62.097656 C 128.515625 63.164062 129.375 64.21875 130.234375 65.277344 C 130.402344 65.484375 130.570312 65.691406 130.742188 65.902344 C 131.085938 66.328125 131.433594 66.753906 131.78125 67.175781 C 132.769531 68.398438 133.761719 69.617188 134.753906 70.839844 C 135.578125 71.855469 136.40625 72.871094 137.234375 73.886719 C 138.828125 75.84375 140.410156 77.804688 141.964844 79.789062 C 143.046875 81.175781 144.132812 82.550781 145.3125 83.859375 C 145.410156 83.859375 145.511719 83.859375 145.617188 83.859375 C 145.648438 75.273438 145.675781 66.695312 145.695312 58.113281 C 145.703125 54.128906 145.710938 50.144531 145.730469 46.160156 C 145.746094 42.683594 145.753906 39.210938 145.757812 35.738281 C 145.761719 33.898438 145.765625 32.058594 145.777344 30.222656 C 145.785156 28.488281 145.789062 26.753906 145.785156 25.023438 C 145.785156 24.390625 145.789062 23.753906 145.796875 23.121094 C 145.828125 19.25 145.730469 16.230469 143.417969 12.960938 C 143.074219 12.625 143.074219 12.625 142.71875 12.28125 C 142.382812 11.933594 142.382812 11.933594 142.039062 11.582031 C 139.03125 9.453125 136.050781 9.164062 132.476562 9.191406 C 131.984375 9.191406 131.488281 9.1875 130.992188 9.1875 C 129.640625 9.179688 128.289062 9.183594 126.9375 9.1875 C 125.476562 9.191406 124.015625 9.183594 122.554688 9.179688 C 119.695312 9.171875 116.835938 9.175781 113.976562 9.179688 C 111.652344 9.183594 109.328125 9.183594 107.003906 9.183594 C 106.675781 9.179688 106.34375 9.179688 106.003906 9.179688 C 105.328125 9.179688 104.65625 9.179688 103.984375 9.179688 C 97.679688 9.175781 91.375 9.179688 85.070312 9.1875 C 79.664062 9.195312 74.257812 9.195312 68.851562 9.1875 C 62.570312 9.179688 56.289062 9.175781 50.003906 9.179688 C 49.335938 9.179688 48.664062 9.179688 47.996094 9.183594 C 47.664062 9.183594 47.332031 9.183594 46.996094 9.183594 C 44.671875 9.183594 42.355469 9.179688 40.035156 9.179688 C 37.203125 9.171875 34.375 9.175781 31.546875 9.183594 C 30.101562 9.1875 28.660156 9.1875 27.21875 9.183594 C 25.894531 9.179688 24.574219 9.179688 23.253906 9.1875 C 22.777344 9.191406 22.300781 9.191406 21.820312 9.1875 C 18.261719 9.164062 14.886719 9.609375 12.28125 12.28125 Z M 112.617188 63.574219 C 111.617188 64.40625 110.710938 65.324219 109.796875 66.25 C 109.523438 66.523438 109.25 66.796875 108.96875 67.082031 C 108.214844 67.828125 107.46875 68.582031 106.726562 69.332031 C 105.941406 70.121094 105.15625 70.910156 104.371094 71.695312 C 103.050781 73.015625 101.730469 74.339844 100.414062 75.667969 C 98.730469 77.363281 97.042969 79.054688 95.355469 80.75 C 93.898438 82.207031 92.441406 83.667969 90.984375 85.132812 C 90.671875 85.445312 90.363281 85.757812 90.050781 86.070312 C 89.027344 87.097656 88.003906 88.128906 86.980469 89.160156 C 86.597656 89.542969 86.597656 89.542969 86.207031 89.933594 C 84.925781 91.226562 83.695312 92.539062 82.507812 93.917969 C 81.878906 94.636719 81.21875 95.316406 80.546875 95.992188 C 80.273438 96.269531 80 96.542969 79.71875 96.828125 C 79.425781 97.121094 79.132812 97.410156 78.839844 97.703125 C 78.535156 98.011719 78.230469 98.316406 77.925781 98.625 C 77.289062 99.261719 76.652344 99.898438 76.015625 100.535156 C 75.199219 101.351562 74.390625 102.167969 73.578125 102.984375 C 72.949219 103.613281 72.320312 104.246094 71.6875 104.875 C 71.386719 105.175781 71.089844 105.476562 70.789062 105.777344 C 70.371094 106.199219 69.953125 106.617188 69.53125 107.035156 C 69.292969 107.273438 69.054688 107.511719 68.8125 107.757812 C 67.414062 109.003906 66.078125 109.644531 64.179688 109.589844 C 62.226562 109.023438 61.003906 108.175781 59.523438 106.808594 C 59.125 106.449219 58.726562 106.09375 58.328125 105.738281 C 58.136719 105.566406 57.945312 105.394531 57.75 105.21875 C 57.074219 104.621094 56.375 104.054688 55.664062 103.496094 C 54.328125 102.445312 53.027344 101.351562 51.734375 100.246094 C 50.429688 99.140625 49.109375 98.054688 47.78125 96.976562 C 47.148438 96.457031 46.53125 95.925781 45.917969 95.382812 C 45.746094 95.230469 45.570312 95.078125 45.394531 94.921875 C 45.0625 94.632812 44.730469 94.335938 44.402344 94.039062 C 43.289062 93.0625 42.34375 92.542969 40.867188 92.335938 C 39.351562 92.851562 38.246094 93.855469 37.066406 94.90625 C 36.691406 95.234375 36.316406 95.5625 35.9375 95.890625 C 35.75 96.058594 35.5625 96.21875 35.371094 96.390625 C 34.535156 97.117188 33.691406 97.828125 32.847656 98.539062 C 31.464844 99.707031 30.09375 100.878906 28.722656 102.058594 C 27.492188 103.117188 26.253906 104.160156 24.996094 105.179688 C 23.074219 106.742188 21.210938 108.371094 19.34375 110 C 17.035156 112.003906 14.707031 113.988281 12.375 115.964844 C 12.214844 116.101562 12.050781 116.242188 11.886719 116.382812 C 10.648438 117.429688 10.648438 117.429688 9.949219 117.84375 C 9.308594 118.335938 9.308594 118.335938 9.230469 119.179688 C 9.226562 119.503906 9.226562 119.828125 9.222656 120.164062 C 9.21875 120.535156 9.214844 120.90625 9.207031 121.285156 C 9.210938 121.691406 9.210938 122.097656 9.214844 122.5 C 9.210938 122.917969 9.210938 123.335938 9.207031 123.753906 C 9.203125 124.632812 9.207031 125.507812 9.210938 126.386719 C 9.214844 127.5 9.207031 128.613281 9.195312 129.730469 C 9.191406 130.59375 9.191406 131.457031 9.195312 132.320312 C 9.195312 132.929688 9.1875 133.539062 9.183594 134.144531 C 9.214844 137.140625 9.835938 139.574219 11.582031 142.039062 C 11.925781 142.375 11.925781 142.375 12.28125 142.71875 C 12.617188 143.066406 12.617188 143.066406 12.960938 143.417969 C 15.96875 145.546875 18.949219 145.835938 22.523438 145.808594 C 23.015625 145.808594 23.511719 145.8125 24.007812 145.8125 C 25.359375 145.820312 26.710938 145.816406 28.0625 145.8125 C 29.523438 145.808594 30.984375 145.816406 32.445312 145.820312 C 35.304688 145.828125 38.164062 145.824219 41.023438 145.820312 C 43.347656 145.816406 45.671875 145.816406 47.996094 145.816406 C 48.492188 145.820312 48.492188 145.820312 48.996094 145.820312 C 49.671875 145.820312 50.34375 145.820312 51.015625 145.820312 C 57.320312 145.824219 63.625 145.820312 69.929688 145.8125 C 75.335938 145.804688 80.742188 145.804688 86.148438 145.8125 C 92.429688 145.820312 98.710938 145.824219 104.996094 145.820312 C 105.664062 145.820312 106.335938 145.820312 107.003906 145.816406 C 107.335938 145.816406 107.667969 145.816406 108.003906 145.816406 C 110.328125 145.816406 112.644531 145.820312 114.964844 145.820312 C 117.796875 145.828125 120.625 145.824219 123.453125 145.816406 C 124.898438 145.8125 126.339844 145.8125 127.78125 145.816406 C 129.105469 145.820312 130.425781 145.820312 131.746094 145.8125 C 132.222656 145.808594 132.699219 145.808594 133.179688 145.8125 C 136.515625 145.835938 139.261719 145.386719 142.039062 143.417969 C 142.375 143.074219 142.375 143.074219 142.71875 142.71875 C 142.949219 142.496094 143.183594 142.269531 143.417969 142.039062 C 145.292969 139.390625 145.84375 136.75 145.839844 133.5625 C 145.847656 133.007812 145.847656 133.007812 145.855469 132.441406 C 145.871094 131.441406 145.878906 130.441406 145.878906 129.4375 C 145.878906 128.808594 145.882812 128.183594 145.886719 127.554688 C 145.902344 125.355469 145.910156 123.15625 145.910156 120.957031 C 145.914062 118.917969 145.933594 116.878906 145.957031 114.84375 C 145.980469 113.082031 145.992188 111.320312 145.992188 109.558594 C 145.992188 108.511719 145.996094 107.464844 146.015625 106.417969 C 146.28125 101.109375 146.28125 101.109375 143.984375 96.554688 C 143.4375 96.023438 142.875 95.546875 142.285156 95.058594 C 141.972656 94.691406 141.667969 94.316406 141.378906 93.929688 C 139.738281 91.792969 138.046875 89.703125 136.332031 87.628906 C 134.632812 85.574219 132.949219 83.503906 131.269531 81.429688 C 130.613281 80.625 129.960938 79.820312 129.304688 79.015625 C 128.976562 78.613281 128.652344 78.207031 128.324219 77.804688 C 127.496094 76.785156 126.667969 75.769531 125.839844 74.753906 C 124.273438 72.832031 122.714844 70.902344 121.1875 68.949219 C 120.785156 68.433594 120.382812 67.921875 119.980469 67.410156 C 119.710938 67.066406 119.441406 66.722656 119.171875 66.378906 C 118.777344 65.867188 118.375 65.367188 117.972656 64.859375 C 117.742188 64.570312 117.511719 64.277344 117.273438 63.976562 C 115.714844 62.453125 114.414062 62.484375 112.617188 63.574219 Z M 112.617188 63.574219 "/>
<path style=" stroke:none;fill-rule:nonzero;fill:rgb(0%,0%,0%);fill-opacity:1;" d="M 61.3125 22.632812 C 61.980469 23.148438 62.625 23.679688 63.273438 24.21875 C 63.570312 24.4375 63.871094 24.65625 64.179688 24.882812 C 67.789062 27.96875 70.300781 33.179688 70.839844 37.84375 C 71.3125 44.476562 70.109375 50.46875 65.679688 55.652344 C 65.484375 55.867188 65.289062 56.085938 65.085938 56.308594 C 64.921875 56.5 64.753906 56.691406 64.582031 56.890625 C 60.847656 60.914062 55.335938 62.933594 49.976562 63.367188 C 43.730469 63.558594 37.878906 61.445312 33.273438 57.191406 C 29.117188 53.136719 26.675781 47.59375 26.566406 41.792969 C 26.542969 35.113281 28.828125 29.78125 33.375 24.898438 C 40.742188 17.828125 52.925781 16.785156 61.3125 22.632812 Z M 38.796875 33.078125 C 36.351562 36.597656 35.675781 39.992188 36.328125 44.199219 C 37.195312 47.578125 39.527344 50.378906 42.464844 52.191406 C 45.414062 53.796875 48.472656 54.234375 51.765625 53.585938 C 55.714844 52.355469 58.398438 50.253906 60.320312 46.601562 C 61.753906 43.5 62.015625 40 60.859375 36.742188 C 59.261719 33.066406 56.824219 30.582031 53.113281 29.023438 C 47.980469 27.1875 42.230469 28.855469 38.796875 33.078125 Z M 38.796875 33.078125 "/>
</g>
</svg>
