<?xml version="1.0" encoding="UTF-8"?>
<svg version="1.1" xmlns="http://www.w3.org/2000/svg" width="512" height="512">
<path d="M0 0 C1.66634896 -0.0030231 3.33269654 -0.00691338 4.99904168 -0.01159257 C9.56373063 -0.0218608 14.12834094 -0.01969374 18.69303632 -0.01541197 C23.62156852 -0.01294263 28.55008189 -0.0219615 33.47860718 -0.02944946 C43.12851714 -0.04219257 52.77839926 -0.04399064 62.42831622 -0.0416492 C70.2726905 -0.03986549 78.11705633 -0.04161683 85.9614296 -0.04587364 C87.07828018 -0.04646883 88.19513076 -0.04706402 89.34582529 -0.04767724 C91.61477644 -0.04888901 93.88372759 -0.05010314 96.15267874 -0.05131962 C117.42629993 -0.06219362 138.69990525 -0.0600333 159.97352733 -0.05393478 C179.42978856 -0.04876547 198.88599972 -0.06002167 218.34225105 -0.07903299 C238.32686313 -0.09841069 258.31145154 -0.10666753 278.29607308 -0.10290974 C289.51314258 -0.10099763 300.73016946 -0.10348628 311.94723129 -0.11762428 C321.49618572 -0.12953814 331.0450713 -0.13094286 340.59402667 -0.11883412 C345.46423755 -0.11294557 350.3343225 -0.11184541 355.20452499 -0.12383652 C359.66680858 -0.13469545 364.12886107 -0.13159179 368.59113385 -0.11757483 C370.20141317 -0.11492795 371.8117106 -0.11729416 373.42197214 -0.1253107 C392.13545903 -0.2119737 408.98966155 4.89099592 422.69558716 18.05610657 C437.57000203 33.09301288 441.96778441 50.09033234 441.9150238 70.60636902 C441.91804691 72.27271798 441.92193718 73.93906556 441.92661637 75.6054107 C441.9368846 80.17009965 441.93471754 84.73470996 441.93043578 89.29940534 C441.92796643 94.22793754 441.9369853 99.15645091 441.94447327 104.0849762 C441.95721638 113.73488616 441.95901445 123.38476828 441.956673 133.03468524 C441.95488929 140.87905951 441.95664063 148.72342535 441.96089745 156.56779861 C441.96149263 157.68464919 441.96208782 158.80149977 441.96270105 159.95219431 C441.96391281 162.22114546 441.96512695 164.49009661 441.96634343 166.75904776 C441.97721742 188.03266894 441.9750571 209.30627427 441.96895858 230.57989635 C441.96378928 250.03615758 441.97504547 269.49236874 441.9940568 288.94862007 C442.0134345 308.93323215 442.02169133 328.91782055 442.01793355 348.9024421 C442.01602144 360.1195116 442.01851008 371.33653848 442.03264809 382.55360031 C442.04456195 392.10255474 442.04596666 401.65144032 442.03385792 411.20039569 C442.02796938 416.07060657 442.02686921 420.94069152 442.03886032 425.81089401 C442.04971925 430.27317759 442.0466156 434.73523009 442.03259864 439.19750287 C442.02995176 440.80778219 442.03231796 442.41807962 442.0403345 444.02834116 C442.1269975 462.74182805 437.02402789 479.59603057 423.85891724 493.30195618 C408.82201093 508.17637105 391.82469146 512.57415343 371.30865479 512.52139282 C369.64230582 512.52441592 367.97595824 512.5283062 366.30961311 512.53298539 C361.74492415 512.54325362 357.18031384 512.54108656 352.61561847 512.5368048 C347.68708626 512.53433545 342.75857289 512.54335432 337.83004761 512.55084229 C328.18013765 512.5635854 318.53025552 512.56538347 308.88033856 512.56304202 C301.03596429 512.56125831 293.19159846 512.56300965 285.34722519 512.56726646 C284.23037461 512.56786165 283.11352403 512.56845684 281.96282949 512.56907007 C279.69387834 512.57028183 277.42492719 512.57149596 275.15597604 512.57271244 C253.88235486 512.58358644 232.60874953 512.58142612 211.33512746 512.5753276 C191.87886623 512.5701583 172.42265506 512.58141449 152.96640374 512.60042582 C132.98179165 512.61980351 112.99720325 512.62806035 93.01258171 512.62430257 C81.79551221 512.62239046 70.57848532 512.6248791 59.36142349 512.63901711 C49.81246907 512.65093097 40.26358349 512.65233568 30.71462812 512.64022694 C25.84441723 512.63433839 20.97433228 512.63323823 16.10412979 512.64522934 C11.64184621 512.65608827 7.17979371 512.65298461 2.71752094 512.63896766 C1.10724162 512.63632077 -0.50305581 512.63868698 -2.11331736 512.64670352 C-20.82680424 512.73336652 -37.68100676 507.63039691 -51.38693237 494.46528625 C-66.26134724 479.42837995 -70.65912963 462.43106048 -70.60636902 441.9150238 C-70.60939212 440.24867484 -70.6132824 438.58232726 -70.61796159 436.91598213 C-70.62822982 432.35129317 -70.62606276 427.78668286 -70.62178099 423.22198749 C-70.61931165 418.29345528 -70.62833051 413.36494191 -70.63581848 408.43641663 C-70.64856159 398.78650667 -70.65035966 389.13662454 -70.64801822 379.48670758 C-70.6462345 371.64233331 -70.64798585 363.79796747 -70.65224266 355.95359421 C-70.65283785 354.83674363 -70.65343304 353.71989305 -70.65404626 352.56919851 C-70.65525803 350.30024736 -70.65647216 348.03129621 -70.65768864 345.76234506 C-70.66856264 324.48872388 -70.66640232 303.21511855 -70.66030379 281.94149648 C-70.65513449 262.48523525 -70.66639069 243.02902408 -70.68540201 223.57277276 C-70.70477971 203.58816067 -70.71303655 183.60357227 -70.70927876 163.61895072 C-70.70736665 152.40188123 -70.7098553 141.18485434 -70.7239933 129.96779251 C-70.73590716 120.41883808 -70.73731188 110.86995251 -70.72520313 101.32099713 C-70.71931459 96.45078625 -70.71821442 91.5807013 -70.73020554 86.71049881 C-70.74106447 82.24821523 -70.73796081 77.78616273 -70.72394385 73.32388996 C-70.72129697 71.71361064 -70.72366318 70.1033132 -70.73167972 68.49305166 C-70.81834271 49.77956477 -65.7153731 32.92536226 -52.55026245 19.21943665 C-37.51335614 4.34502178 -20.51603668 -0.05276061 0 0 Z M-29.78317261 40.82319641 C-30.54500854 41.56698547 -31.30684448 42.31077454 -32.09176636 43.07710266 C-38.23123194 51.74896479 -40.08524727 60.33215023 -39.94694519 70.78919983 C-39.95121731 71.99185022 -39.95548944 73.1945006 -39.95989102 74.43359494 C-39.96665145 77.73630858 -39.95122741 81.03750794 -39.92600071 84.34003687 C-39.90425389 87.91449911 -39.9117261 91.48892093 -39.91551208 95.06343079 C-39.91812417 101.24462012 -39.90253868 107.42554399 -39.87432289 113.60666656 C-39.83355536 122.54330365 -39.82065218 131.47981339 -39.81438293 140.41653338 C-39.80346046 154.91837128 -39.77024203 169.42006794 -39.72286987 183.92182922 C-39.67692115 198.00255124 -39.6415553 212.08323479 -39.62033081 226.16401672 C-39.61901719 227.03306675 -39.61770358 227.90211678 -39.61635015 228.79750165 C-39.6098246 233.15760261 -39.60350615 237.51770383 -39.59729064 241.87780523 C-39.54552141 278.00553531 -39.45751213 314.13310483 -39.34567261 350.26069641 C-38.08132125 349.31993276 -36.81801754 348.37776103 -35.55514526 347.43501282 C-34.85152863 346.9104953 -34.14791199 346.38597778 -33.42297363 345.8455658 C-30.42122696 343.55539391 -27.56790702 341.11343277 -24.72067261 338.63569641 C-23.50324568 337.58489085 -22.28579713 336.53411033 -21.06832886 335.48335266 C-20.14624634 334.68502014 -20.14624634 334.68502014 -19.20553589 333.87055969 C-16.19530883 331.26496278 -13.17825039 328.66736579 -10.15817261 326.07319641 C-9.57632202 325.57312073 -8.99447144 325.07304504 -8.39498901 324.55781555 C-4.83694535 321.50956766 -1.23647507 318.52270727 2.40432739 315.57319641 C5.9131673 312.7261114 9.31299377 309.80257089 12.65432739 306.76069641 C16.91351345 302.88443402 21.30543817 299.21697918 25.78323364 295.59663391 C27.80654534 293.9504565 29.81324158 292.29369996 31.80667114 290.61225891 C32.33405884 290.16809631 32.86144653 289.72393372 33.40481567 289.26631165 C34.88148844 288.02021032 36.35586983 286.77139511 37.83010864 285.52241516 C47.25737031 277.97278237 57.53347335 274.27198626 69.65432739 275.26069641 C83.75831387 277.50364844 92.69372444 284.8941743 103.05276489 294.08882141 C106.64507347 297.27491271 110.36331472 300.27026354 114.13479614 303.24116516 C117.16811272 305.67252124 120.13073213 308.17979698 123.09182739 310.69819641 C124.19197228 311.6306244 125.29223214 312.56291676 126.39260864 313.49507141 C128.01642851 314.87074723 129.63906373 316.24765977 131.25735474 317.62983704 C132.75872949 318.90963605 134.26884883 320.17915497 135.77932739 321.44819641 C136.64815552 322.1842511 137.51698364 322.92030579 138.41213989 323.67866516 C140.60551615 325.54895417 140.60551615 325.54895417 143.65432739 325.26069641 C145.62454244 323.57124225 147.41454847 321.87384 149.22477722 320.02409363 C149.78789862 319.46071324 150.35102001 318.89733286 150.93120569 318.31688035 C152.8266564 316.41698557 154.71115681 314.50658202 156.59597778 312.59614563 C157.94896251 311.23577003 159.30263721 309.87608037 160.6569519 308.51702881 C163.57825381 305.58282752 166.49487661 302.64407844 169.40809822 299.70185471 C174.01895591 295.045732 178.64170321 290.40153937 183.26649475 285.75926208 C194.75836805 274.22026247 206.23521284 262.66634516 217.70742798 251.10780334 C226.61061451 242.13785383 235.51825982 233.1724357 244.43987268 224.22080815 C249.03284243 219.6113721 253.61627809 214.99272612 258.19266999 210.36683345 C261.05151429 207.4812266 263.91875974 204.60408 266.78833008 201.72914314 C268.11160567 200.40000464 269.43145029 199.06743948 270.74746513 197.73111153 C282.28431495 186.02252975 292.59979715 177.67104766 309.86526489 177.16694641 C322.97732831 177.84108849 332.44264457 183.50975002 341.15432739 193.01069641 C344.67618216 197.04765239 348.05879775 201.18047073 351.37698364 205.38569641 C354.16883225 208.9102257 357.00353684 212.39853412 359.84182739 215.88569641 C360.39709106 216.56841614 360.95235474 217.25113586 361.52444458 217.95454407 C362.66575799 219.35780362 363.80719795 220.76096025 364.94876099 222.16401672 C368.22584261 226.19258485 371.50000183 230.22352904 374.77371216 234.25483704 C377.50392982 237.61636876 380.23672777 240.97574021 382.97463989 244.33100891 C388.23713957 250.78533962 393.46455608 257.26071229 398.59182739 263.82319641 C402.1718596 268.40165415 405.75349327 272.94924817 409.65432739 277.26069641 C409.98432739 277.26069641 410.31432739 277.26069641 410.65432739 277.26069641 C410.77122835 248.91394298 410.85934888 220.56722579 410.91338825 192.22027969 C410.93914874 179.05772586 410.97425836 165.89532196 411.03152466 152.73286438 C411.08142525 141.25790039 411.11363406 129.78304501 411.12476987 118.30797553 C411.13127725 112.2343016 411.14652714 106.16093837 411.18297768 100.0873642 C411.21704197 94.36476255 411.22735914 88.64259812 411.2198658 82.91990471 C411.22123567 80.82537138 411.23110543 78.73082266 411.25035477 76.63637733 C411.36212362 63.84226139 411.0404701 53.86850631 403.40042114 43.07710266 C402.25766724 41.96141907 402.25766724 41.96141907 401.09182739 40.82319641 C399.9761438 39.6804425 399.9761438 39.6804425 398.83792114 38.51460266 C388.91178604 31.48714259 379.05787028 30.53444409 367.2583313 30.6257782 C365.62309721 30.62000743 363.98786961 30.61205993 362.35265541 30.60214198 C357.88773284 30.58137637 353.42334842 30.59153664 348.95842457 30.60707307 C344.13214894 30.61842502 339.30596333 30.60090485 334.47970581 30.58717346 C325.03635942 30.56497747 315.59321209 30.56972603 306.149858 30.58423667 C298.47288477 30.59554323 290.79596721 30.59705367 283.11898804 30.59161758 C282.02503554 30.59085142 280.93108304 30.59008525 279.80398047 30.58929587 C277.58141564 30.58769719 275.35885082 30.58607613 273.13628602 30.58443291 C252.31086295 30.57018607 231.48555005 30.58655145 210.66014504 30.61343475 C192.80333296 30.63577253 174.94668342 30.63189211 157.08987427 30.60884094 C136.33735416 30.58206416 115.58493053 30.57155927 94.83239555 30.58690226 C92.61815263 30.58849495 90.4039097 30.59006681 88.18966675 30.59161758 C87.10030748 30.59238896 86.01094821 30.59316034 84.88857806 30.59395509 C77.22365854 30.59826645 69.55880039 30.5909977 61.89389038 30.57921982 C52.54883171 30.56517543 43.20398295 30.56903558 33.85894823 30.59562354 C29.09383375 30.60873557 24.32906886 30.61395876 19.56395721 30.59737778 C15.19656602 30.58241092 10.82984639 30.59077666 6.46251559 30.61726554 C4.88798072 30.62282209 3.31338839 30.62007397 1.73889089 30.6078866 C-10.02076563 30.52388791 -21.17030395 32.00135 -29.78317261 40.82319641 Z M301.65432739 210.26069641 C298.3472431 213.00859683 295.35741087 216.04180744 292.34182739 219.10322571 C291.43521362 220.00764908 290.52859985 220.91207245 289.59451294 221.84390259 C287.11846997 224.31454618 284.65498672 226.79737203 282.1937561 229.28276038 C279.60680136 231.89110083 277.0088136 234.48840814 274.41213989 237.08706665 C270.05130572 241.45434056 265.69792709 245.82892949 261.34963989 250.20869446 C255.78691184 255.81164137 250.21285193 261.40316475 244.63479614 266.99084759 C239.81907541 271.81490713 235.0078071 276.64340011 230.19766235 281.47301888 C229.17022194 282.50449448 228.14263444 283.5358236 227.11489868 284.56700492 C223.72852621 287.96475945 220.34662523 291.36689962 216.96682739 294.77119446 C215.70261963 296.03943558 215.70261963 296.03943558 214.41287231 297.33329773 C210.183161 301.60129783 206.11279129 305.94486003 202.19144058 310.49759197 C200.12199002 312.87129971 197.93734926 315.11217483 195.71633911 317.34394836 C194.8120517 318.25461563 193.90776428 319.1652829 192.97607422 320.10354614 C192.01225657 321.06889183 191.04823187 322.03403083 190.08401489 322.99897766 C189.07459595 324.01161807 188.06524874 325.02432999 187.05596924 326.03710938 C184.95493699 328.14408536 182.85189345 330.24902964 180.74758911 332.35273743 C178.05827433 335.04195002 175.3759415 337.73801424 172.69526482 340.43583393 C170.61914176 342.52308869 168.5384762 344.60576931 166.45651627 346.68720055 C165.46538521 347.67950689 164.47586418 348.6734242 163.48803329 349.66901588 C162.10797627 351.05891071 160.72088589 352.44181115 159.33352661 353.82441711 C158.54855804 354.6108107 157.76358948 355.39720428 156.95483398 356.20742798 C152.3400478 360.32625764 147.92685118 362.44434315 141.65432739 362.26069641 C135.20650941 360.385329 131.16485765 357.59195676 126.27932739 353.07319641 C124.9628958 351.89338485 123.64518777 350.71499599 122.32620239 349.53804016 C121.6952063 348.97069153 121.06421021 348.4033429 120.41409302 347.81880188 C118.18149149 345.84204509 115.87356162 343.97814194 113.52932739 342.13569641 C109.11137786 338.65555375 104.82312977 335.04079304 100.54055786 331.39692688 C96.23525497 327.7386199 91.87601194 324.15264313 87.48245239 320.60054016 C85.39416591 318.87280038 83.35303544 317.12414264 81.32620239 315.32710266 C80.7570813 314.82823547 80.18796021 314.32936829 79.60159302 313.81538391 C78.50322688 312.84973175 77.4127615 311.87498602 76.33206177 310.88960266 C72.64644639 307.66761615 69.5169915 305.95302639 64.65432739 305.26069641 C59.63856261 306.96929242 55.99120954 310.29113252 52.09182739 313.76069641 C50.8513357 314.84448056 49.61044138 315.92780402 48.36917114 317.01069641 C47.74768188 317.55596985 47.12619263 318.10124329 46.48587036 318.66304016 C43.73612619 321.06164399 40.94637396 323.41162083 38.15432739 325.76069641 C33.59058895 329.61037106 29.05479826 333.49114211 24.52932739 337.38569641 C20.46807929 340.87889123 16.3791396 344.32518192 12.21682739 347.69819641 C5.868305 352.85520727 -0.27660477 358.24014001 -6.4447937 363.6098175 C-14.07325908 370.23500154 -21.76810403 376.78443541 -29.47067261 383.32319641 C-30.00321655 383.77646301 -30.5357605 384.22972961 -31.08444214 384.69673157 C-35.16622214 388.15397692 -35.16622214 388.15397692 -37.48371887 389.53219604 C-39.59792344 391.15343379 -39.59792344 391.15343379 -39.8603363 393.93243408 C-39.86653488 395.00876602 -39.87273346 396.08509796 -39.87911987 397.19404602 C-39.89495621 398.4163945 -39.91079254 399.63874298 -39.92710876 400.89813232 C-39.92326369 402.23643879 -39.91822263 403.57474227 -39.91207886 404.91304016 C-39.91731797 406.29248473 -39.9235955 407.67192571 -39.93086243 409.05136108 C-39.94128182 411.94919111 -39.93669287 414.8465308 -39.92208862 417.74433899 C-39.90503759 421.42615065 -39.92821348 425.10638155 -39.96357822 428.78801632 C-39.98575787 431.64261884 -39.98405956 434.49685654 -39.97581291 437.35151863 C-39.97461143 439.3586346 -39.99439146 441.36572867 -40.01475525 443.3727417 C-39.91557428 453.27031741 -37.85728822 461.30061543 -32.09176636 469.44429016 C-30.94901245 470.55997375 -30.94901245 470.55997375 -29.78317261 471.69819641 C-28.66748901 472.84095032 -28.66748901 472.84095032 -27.52926636 474.00679016 C-17.60313125 481.03425023 -7.7492155 481.98694873 4.05032349 481.89561462 C5.68555758 481.90138539 7.32078518 481.90933289 8.95599937 481.91925085 C13.42092195 481.94001645 17.88530636 481.92985618 22.35023022 481.91431975 C27.17650585 481.9029678 32.00269145 481.92048797 36.82894897 481.93421936 C46.27229537 481.95641535 55.7154427 481.95166679 65.15879679 481.93715616 C72.83577001 481.92584959 80.51268758 481.92433915 88.18966675 481.92977524 C89.83059549 481.93092449 89.83059549 481.93092449 91.50467432 481.93209695 C93.72723915 481.93369563 95.94980396 481.9353167 98.17236876 481.93695991 C118.99779184 481.95120675 139.82310474 481.93484137 160.64850974 481.90795808 C178.50532182 481.88562029 196.36197137 481.88950072 214.21878052 481.91255188 C234.97130063 481.93932866 255.72372426 481.94983356 276.47625923 481.93449056 C278.69050215 481.93289787 280.90474509 481.93132601 283.11898804 481.92977524 C284.20834731 481.92900386 285.29770657 481.92823248 286.42007673 481.92743773 C294.08499624 481.92312638 301.74985439 481.93039512 309.4147644 481.942173 C318.75982307 481.95621739 328.10467183 481.95235724 337.44970655 481.92576928 C342.21482103 481.91265726 346.97958593 481.90743406 351.74469757 481.92401505 C356.11208877 481.9389819 360.47880839 481.93061617 364.84613919 481.90412728 C366.42067406 481.89857073 367.99526639 481.90131886 369.5697639 481.91350622 C380.58990666 481.9922226 389.66561191 480.50056001 398.83792114 474.00679016 C399.95360474 472.86403625 399.95360474 472.86403625 401.09182739 471.69819641 C401.85366333 470.95440735 402.61549927 470.21061829 403.40042114 469.44429016 C409.58769985 460.70489302 411.40302687 451.97961211 411.39651489 441.44648743 C411.42411392 439.61712646 411.42411392 439.61712646 411.45227051 437.75080872 C411.49549921 434.44243348 411.51649936 431.13562481 411.52354431 427.82708478 C411.52936345 425.75174136 411.54205073 423.67655172 411.55703735 421.60125542 C411.60909043 414.33717397 411.63458273 407.07354293 411.63577271 399.8092804 C411.6376066 393.07478733 411.69920908 386.34261607 411.78840828 379.60876518 C411.86267242 373.79341001 411.89386781 367.9788138 411.89265251 362.16298813 C411.89268067 358.70385673 411.90938735 355.2469293 411.97018433 351.78828621 C412.85246307 334.24599268 412.85246307 334.24599268 405.26296997 319.20478821 C403.45762182 317.45086113 401.59563849 315.87127 399.65432739 314.26069641 C398.61831379 313.0489271 397.61264954 311.80915073 396.66604614 310.52632141 C391.2360033 303.4809549 385.65750736 296.57579758 379.98928833 289.72090149 C374.37293449 282.92848009 368.81356392 276.09097084 363.26321411 269.24458313 C361.10425872 266.58241749 358.94276425 263.92231991 356.78103638 261.2624054 C355.69829647 259.93006493 354.6157762 258.59754593 353.53347778 257.2648468 C350.80381081 253.90383387 348.07145288 250.54507157 345.33401489 247.19038391 C340.15574034 240.83942512 335.01139356 234.46852974 329.96682739 228.01069641 C328.63660068 226.31811835 327.30478155 224.62681608 325.97171021 222.93647766 C325.07934942 221.80134712 324.19078346 220.66322487 323.30569458 219.52241516 C321.99731625 217.84116324 320.67187179 216.17483258 319.34182739 214.51069641 C318.58256958 213.54647766 317.82331177 212.58225891 317.04104614 211.58882141 C311.88908822 206.56334364 307.59377565 206.65619894 301.65432739 210.26069641 Z " fill="#000000" transform="translate(70.34567260742188,-0.2606964111328125)"/>
<path d="M0 0 C2.20655549 1.69169254 4.33944138 3.44712399 6.46875 5.234375 C7.45875 5.95625 8.44875 6.678125 9.46875 7.421875 C21.38356927 17.62043221 29.68161262 34.83627166 31.46875 50.234375 C33.02985482 72.14621566 29.05297864 91.94616194 14.42578125 109.0625 C13.77996094 109.77921875 13.13414062 110.4959375 12.46875 111.234375 C11.91574219 111.86859375 11.36273438 112.5028125 10.79296875 113.15625 C-1.53490913 126.4550586 -19.7500718 133.11921473 -37.44140625 134.55078125 C-58.07809239 135.18106427 -77.41182288 128.19671717 -92.625 114.1484375 C-106.34790914 100.7586961 -114.4101806 82.45112167 -114.77294922 63.28637695 C-114.85957427 41.21991808 -107.30687223 23.61279519 -92.28125 7.484375 C-67.94759481 -15.87593398 -27.70361024 -19.32412319 0 0 Z M-74.375 34.50390625 C-82.45279148 46.12563076 -84.68454316 57.33296767 -82.53125 71.234375 C-79.67291904 82.3880795 -71.96094873 91.6465679 -62.25390625 97.640625 C-52.5181624 102.93145578 -42.41328834 104.38012904 -31.53125 102.234375 C-18.49002244 98.18430433 -9.62743786 91.23429826 -3.28125 79.171875 C1.45936007 68.92030573 2.31728359 57.35685899 -1.50390625 46.59765625 C-6.78046574 34.45956313 -14.82966629 26.25486496 -27.0859375 21.109375 C-44.04467245 15.04107368 -63.03716842 20.54780424 -74.375 34.50390625 Z " fill="#000000" transform="translate(202.53125,74.765625)"/>
</svg>
